<svg width="60" height="60" viewBox="0 0 60 60" fill="none" xmlns="http://www.w3.org/2000/svg">
<path d="M10 17.5C10 16.1193 11.1193 15 12.5 15H47.5C48.8807 15 50 16.1193 50 17.5C50 18.8807 48.8807 20 47.5 20H12.5C11.1193 20 10 18.8807 10 17.5Z" fill="black"/>
<path d="M10 30C10 28.6193 11.1193 27.5 12.5 27.5H37.5C38.8808 27.5 40 28.6193 40 30C40 31.3807 38.8808 32.5 37.5 32.5H12.5C11.1193 32.5 10 31.3807 10 30Z" fill="black"/>
<path d="M12.5 40C11.1193 40 10 41.1193 10 42.5C10 43.8807 11.1193 45 12.5 45H27.5C28.8808 45 30 43.8807 30 42.5C30 41.1193 28.8808 40 27.5 40H12.5Z" fill="black"/>
</svg>
