<svg width="60" height="60" viewBox="0 0 60 60" fill="none" xmlns="http://www.w3.org/2000/svg">
<path d="M50 42.5C50 43.8807 48.8807 45 47.5 45L12.5 45C11.1193 45 10 43.8807 10 42.5C10 41.1193 11.1193 40 12.5 40L47.5 40C48.8807 40 50 41.1193 50 42.5Z" fill="black"/>
<path d="M50 30C50 31.3807 48.8807 32.5 47.5 32.5H22.5C21.1192 32.5 20 31.3807 20 30C20 28.6193 21.1192 27.5 22.5 27.5L47.5 27.5C48.8807 27.5 50 28.6193 50 30Z" fill="black"/>
<path d="M47.5 20C48.8807 20 50 18.8807 50 17.5C50 16.1193 48.8807 15 47.5 15L32.5 15C31.1192 15 30 16.1193 30 17.5C30 18.8807 31.1192 20 32.5 20L47.5 20Z" fill="black"/>
</svg>
